<svg width="800" height="800" viewBox="0 0 800 800" fill="none" xmlns="http://www.w3.org/2000/svg">
  <path d="M400 200C500 200 550 250 600 300C650 350 700 400 700 500C700 600 650 650 600 700C550 750 500 800 400 800C300 800 250 750 200 700C150 650 100 600 100 500C100 400 150 350 200 300C250 250 300 200 400 200Z" fill="hsl(158 64% 52% / 0.1)"/>
  <path d="M300 300C350 250 400 200 500 200C600 200 650 250 700 300C750 350 800 400 800 500C800 600 750 650 700 700C650 750 600 800 500 800C400 800 350 750 300 700C250 650 200 600 200 500C200 400 250 350 300 300Z" fill="hsl(158 64% 52% / 0.1)"/>
  <circle cx="400" cy="400" r="5" fill="hsl(158 64% 52% / 0.8)"/>
  <circle cx="500" cy="300" r="5" fill="hsl(158 64% 52% / 0.8)"/>
  <circle cx="600" cy="400" r="5" fill="hsl(158 64% 52% / 0.8)"/>
  <circle cx="500" cy="500" r="5" fill="hsl(158 64% 52% / 0.8)"/>
  <line x1="400" y1="400" x2="500" y2="300" stroke="hsl(158 64% 52% / 0.3)" stroke-width="2"/>
  <line x1="500" y1="300" x2="600" y2="400" stroke="hsl(158 64% 52% / 0.3)" stroke-width="2"/>
  <line x1="600" y1="400" x2="500" y2="500" stroke="hsl(158 64% 52% / 0.3)" stroke-width="2"/>
  <line x1="500" y1="500" x2="400" y2="400" stroke="hsl(158 64% 52% / 0.3)" stroke-width="2"/>
</svg>